<svg xmlns="http://www.w3.org/2000/svg" width="350" height="78.795" viewBox="0 0 350 78.795"><g transform="translate(-350 -67)"><g transform="translate(332.414 -31.986)"><g transform="translate(17.586 98.986)"><path d="M36.443,177.343a24.313,24.313,0,0,1-7.741-3.264,21.655,21.655,0,0,1-6.608-6.177,20.294,20.294,0,0,1-3.992-8.55,18.271,18.271,0,0,1-.459-6.2c.189-5.448,1.4-9.116,4.289-13.027a24.269,24.269,0,0,1,18.044-9.98l2.05-.189.809-1.672a27.147,27.147,0,0,1,16.156-13.648,18.179,18.179,0,0,1,5.448-.728l3.587-.162,1.025-1.51a37.428,37.428,0,0,1,3.83-4.208,31.27,31.27,0,0,1,16.83-8.631,33.09,33.09,0,0,1,23.277,5.1,33.165,33.165,0,0,1,8.5,9.143,35.269,35.269,0,0,1,4.531,14.214,13.049,13.049,0,0,0,.459,2.967c.108.081,1.16.566,2.347,1.079a25,25,0,0,1,13.351,14.969,35.1,35.1,0,0,1,.566,11.409c-1.376,8.874-9.737,17.343-18.826,19.1C120.972,177.936,39.113,177.909,36.443,177.343Zm87.308-8.577a19.054,19.054,0,0,0,6.743-4.127,16.3,16.3,0,0,0,4.235-10.762,15.018,15.018,0,0,0-4.639-11.139,13.96,13.96,0,0,0-7.552-4.127c-3.8-.836-4.369-1.7-4.666-7.067-.728-12.461-6.177-20.418-15.886-23.088a27.358,27.358,0,0,0-13.756-.135,32.663,32.663,0,0,0-7.795,3.965,26.964,26.964,0,0,0-5.907,6.8,12.7,12.7,0,0,1-2.023,2.67c-.809.593-.917.593-6.932.459a13.625,13.625,0,0,0-8.038,2.077,17.233,17.233,0,0,0-5.8,5.394c-1.133,1.672-1.456,2.347-2.778,5.826a5.45,5.45,0,0,1-1.537,2.158l-1.052.836-4.477.162c-3.641.162-4.8.3-6.015.755A15.437,15.437,0,0,0,25.87,154.012c0,4.073,1.133,6.959,4.235,10.654,1.376,1.645,5.179,3.749,7.741,4.315,1.4.3,8.9.351,43.1.324C119.732,169.252,122.429,169.225,123.751,168.766Z" transform="translate(-17.586 -98.986)" fill="#81b398"/></g></g><text transform="translate(494 121)" fill="#282c33" font-size="41" font-family="Poppins-SemiBold, Poppins" font-weight="600"><tspan x="0" y="0">WebPACS</tspan></text></g></svg>